<?xml version="1.0" standalone="no"?>
<!DOCTYPE svg PUBLIC "-//W3C//DTD SVG 20010904//EN"
 "http://www.w3.org/TR/2001/REC-SVG-20010904/DTD/svg10.dtd">
<svg version="1.0" xmlns="http://www.w3.org/2000/svg"
 width="612.000000pt" height="612.000000pt" viewBox="0 0 612.000000 612.000000"
 preserveAspectRatio="xMidYMid meet">
<metadata>
Created by potrace 1.14, written by Peter Selinger 2001-2017
</metadata>
<g transform="translate(0.000000,612.000000) scale(0.100000,-0.100000)"
fill="#000000" stroke="none">
<path d="M2880 5149 c0 -131 -46 -229 -231 -495 -183 -265 -229 -363 -229
-491 0 -69 21 -134 67 -210 l28 -48 6 85 c10 134 52 223 232 479 191 272 232
367 225 510 -5 89 -27 152 -77 211 l-20 25 -1 -66z"/>
<path d="M3150 4799 c-1 -123 -53 -242 -195 -439 -202 -282 -265 -411 -265
-541 0 -77 23 -148 70 -219 l30 -45 0 66 c0 36 7 90 16 120 18 61 87 195 141
272 20 29 66 95 103 147 90 128 154 242 180 319 21 65 28 161 14 217 -9 36
-50 121 -75 153 l-19 24 0 -74z"/>
<path d="M3460 4530 c0 -41 -5 -93 -11 -115 -17 -61 -85 -191 -147 -280 -255
-363 -297 -448 -297 -595 0 -74 4 -93 31 -150 17 -36 40 -76 51 -89 l19 -24
-4 60 c-8 110 42 231 175 426 222 324 255 383 279 499 22 103 4 184 -64 293
l-32 50 0 -75z"/>
<path d="M2460 3805 c-352 -43 -624 -127 -734 -227 -42 -38 -50 -53 -72 -128
-82 -282 -94 -613 -34 -913 115 -567 507 -1040 990 -1196 486 -157 1018 3
1366 410 55 64 139 177 162 216 5 9 20 8 62 -3 127 -33 304 -6 427 67 131 77
276 259 339 425 51 136 81 334 69 464 -11 123 13 114 -338 120 l-302 5 -2 30
c-10 126 -39 278 -75 398 -16 55 -28 74 -66 107 -121 107 -407 189 -809 233
-41 5 -44 4 -79 -44 -20 -28 -34 -53 -31 -56 3 -3 46 -9 94 -14 349 -35 623
-107 741 -196 32 -24 33 -25 15 -45 -26 -29 -134 -81 -231 -112 -112 -35 -295
-71 -472 -93 -207 -25 -773 -25 -980 0 -337 41 -613 120 -697 199 -22 21 -22
22 -5 41 28 33 169 94 292 126 149 39 259 59 412 74 106 11 123 15 122 30 0 9
-1 35 -2 57 -2 47 6 45 -162 25z m-669 -549 c68 -38 236 -93 370 -121 259 -55
482 -75 824 -75 513 0 911 63 1184 187 41 18 76 31 78 29 3 -3 12 -49 20 -103
21 -140 13 -461 -16 -598 -111 -535 -451 -958 -898 -1118 -219 -79 -506 -79
-726 0 -188 67 -345 171 -498 330 -113 119 -192 235 -270 397 -94 198 -141
381 -159 616 -14 171 12 480 40 480 4 0 27 -11 51 -24z m3121 -367 c7 -46 -9
-211 -27 -280 -57 -224 -191 -411 -349 -487 -87 -42 -155 -56 -244 -48 -42 3
-77 8 -80 11 -2 2 16 53 41 112 81 193 128 395 143 621 l7 102 252 0 253 0 4
-31z"/>
<path d="M3665 2744 c-65 -10 -193 -36 -245 -51 -109 -29 -330 -105 -330 -113
0 -13 335 -119 468 -147 110 -24 149 -27 292 -27 109 1 182 6 215 15 l50 14
21 92 c13 51 24 109 26 130 l3 37 -90 24 c-70 18 -123 24 -235 27 -80 2 -158
1 -175 -1z"/>
<path d="M1627 1480 c-7 -29 7 -84 32 -118 42 -60 73 -67 314 -70 l218 -3 10
-29 c22 -63 -14 -60 792 -60 l734 0 27 26 c14 15 26 35 26 45 0 17 16 18 223
21 191 3 227 6 259 21 61 31 95 98 89 175 -1 9 -63 12 -277 12 l-276 0 -76
-51 c-150 -98 -328 -172 -502 -206 -114 -22 -346 -22 -460 0 -178 35 -359 110
-501 206 l-74 51 -276 0 c-267 0 -277 -1 -282 -20z"/>
</g>
</svg>
